<?xml version="1.0" encoding="UTF-8"?>
<svg width="32px" height="32px" viewBox="0 0 32 32" version="1.1" xmlns="http://www.w3.org/2000/svg" xmlns:xlink="http://www.w3.org/1999/xlink">
    <!-- Generator: Sketch 46.2 (44496) - http://www.bohemiancoding.com/sketch -->
    <title>fav_icon</title>
    <desc>Created with Sketch.</desc>
    <defs></defs>
    <g id="Page-1" stroke="none" stroke-width="1" fill="none" fill-rule="evenodd">
        <g id="Artboard">
            <g id="fav_icon">
                <rect id="Rectangle-2" fill="#192640" x="0" y="0" width="32" height="32"></rect>
                <g id="planet" transform="translate(16.000000, 16.500000) rotate(-45.000000) translate(-16.000000, -16.500000) translate(2.000000, 9.000000)" stroke="#FFFFFF">
                    <path d="M14,15 C18.0934046,15 21.4117647,11.6421356 21.4117647,7.5 C21.4117647,3.35786438 18.0934046,0 14,0 C9.90659538,0 6.58823529,3.35786438 6.58823529,7.5 C6.58823529,11.6421356 9.90659538,15 14,15 Z" id="Oval-1" stroke-width="1.0862069"></path>
                    <path d="M6.89874328,9.65498349 C7.81373968,12.7467744 10.646831,15 14,15 C17.353169,15 20.1862603,12.7467744 21.1012567,9.65498349 C25.2299631,9.22020717 28,8.41786937 28,7.5 C28,6.58213063 25.2299631,5.77979283 21.1012567,5.34501651 C20.1862603,2.25322562 17.353169,0 14,0 C10.646831,0 7.81373968,2.25322562 6.89874328,5.34501651 C2.77003693,5.77979283 0,6.58213063 0,7.5 C0,8.41786937 2.77003693,9.22020717 6.89874328,9.65498349 Z" id="Oval-1" stroke-width="1.30344828"></path>
                    <path d="M28,10 C28,8.61928813 21.7319865,7.5 14,7.5 C6.2680135,7.5 0,8.61928813 0,10" id="Oval-2" stroke-width="1.30344828" transform="translate(14.000000, 8.750000) scale(1, -1) translate(-14.000000, -8.750000) "></path>
                </g>
            </g>
        </g>
    </g>
</svg>