<?xml version="1.0" encoding="UTF-8"?>
<svg width="131px" height="14px" viewBox="0 0 131 14" version="1.1" xmlns="http://www.w3.org/2000/svg" xmlns:xlink="http://www.w3.org/1999/xlink">
    <!-- Generator: Sketch 46.1 (44463) - http://www.bohemiancoding.com/sketch -->
    <title>Group 2</title>
    <desc>Created with Sketch.</desc>
    <defs></defs>
    <g id="1.-Desktop" stroke="none" stroke-width="1" fill="none" fill-rule="evenodd">
        <g id="Header-Copy" transform="translate(-79.000000, -83.000000)">
            <g id="Group-2" transform="translate(79.000000, 77.000000)">
                <g id="planet" transform="translate(35.970671, 12.648875) rotate(-60.000000) translate(-35.970671, -12.648875) translate(26.970671, 3.648875)" stroke="#FFFFFF">
                    <path d="M8.70096189,14.95105 C12.0947763,14.95105 14.8460065,12.1527903 14.8460065,8.70096189 C14.8460065,5.24913352 12.0947763,2.45087375 8.70096189,2.45087375 C5.30714745,2.45087375 2.55591724,5.24913352 2.55591724,8.70096189 C2.55591724,12.1527903 5.30714745,14.95105 8.70096189,14.95105 Z" id="Oval-1" transform="translate(8.700962, 8.700962) rotate(-30.000000) translate(-8.700962, -8.700962) "></path>
                </g>
                <g id="Group-3" transform="translate(0.000000, 6.000000)" fill="#FFFFFF">
                    <path d="M4.78870056,13.5814737 C3.84858287,13.5814737 3.07887305,13.41937 2.47954802,13.0951579 C1.88022299,12.7709457 1.40429555,12.3612656 1.05175141,11.8661053 C0.699207277,11.3709449 0.455367907,10.8315819 0.320225989,10.248 C0.18508407,9.66441813 0.117514124,9.11326575 0.117514124,8.59452632 L0.117514124,0.742736842 L1.38666667,0.742736842 L1.38666667,8.45305263 C1.38666667,8.96000253 1.44542314,9.45220814 1.56293785,9.92968421 C1.68045256,10.4071603 1.87141111,10.8315771 2.13581921,11.2029474 C2.40022731,11.5743176 2.74982833,11.8749462 3.18463277,12.1048421 C3.6194372,12.334738 4.15412112,12.4496842 4.78870056,12.4496842 C5.42328001,12.4496842 5.95796393,12.334738 6.39276836,12.1048421 C6.8275728,11.8749462 7.17717382,11.5743176 7.44158192,11.2029474 C7.70599002,10.8315771 7.89694856,10.4071603 8.01446328,9.92968421 C8.13197799,9.45220814 8.19073446,8.96000253 8.19073446,8.45305263 L8.19073446,0.742736842 L9.45988701,0.742736842 L9.45988701,8.59452632 C9.45988701,9.11326575 9.39231706,9.66441813 9.25717514,10.248 C9.12203322,10.8315819 8.87819385,11.3709449 8.52564972,11.8661053 C8.17310558,12.3612656 7.69424031,12.7709457 7.08903955,13.0951579 C6.48383878,13.41937 5.71706679,13.5814737 4.78870056,13.5814737 Z M23.3148022,11.4063158 L23.3500564,11.4063158 L23.3500564,0.742736842 L24.6192089,0.742736842 L24.6192089,13.2631579 L23.0327683,13.2631579 L15.7703954,2.49347368 L15.7351411,2.49347368 L15.7351411,13.2631579 L14.4659886,13.2631579 L14.4659886,0.742736842 L16.0524293,0.742736842 L23.3148022,11.4063158 Z" id="UN-Copy"></path>
                    <path d="M57.2305085,11.2471579 C57.018982,11.5654753 56.7633913,11.8661038 56.4637288,12.1490526 C56.1640663,12.4320014 55.8174031,12.6795779 55.4237288,12.8917895 C55.0300545,13.1040011 54.5952566,13.2719994 54.119322,13.3957895 C53.6433875,13.5195796 53.1233927,13.5814737 52.559322,13.5814737 C51.6192043,13.5814737 50.7496085,13.4164227 49.9505085,13.0863158 C49.1514084,12.7562089 48.4639577,12.2993713 47.8881356,11.7157895 C47.3123135,11.1322076 46.8628265,10.439583 46.539661,9.63789474 C46.2164956,8.83620652 46.0549153,7.95789951 46.0549153,7.00294737 C46.0549153,6.04799523 46.2194334,5.16968822 46.5484746,4.368 C46.8775158,3.56631178 47.3328784,2.87368713 47.9145763,2.29010526 C48.4962741,1.7065234 49.1837248,1.24968586 49.9769492,0.919578947 C50.7701735,0.589472034 51.6309558,0.424421053 52.559322,0.424421053 C53.0176294,0.424421053 53.4671164,0.471578476 53.9077966,0.565894737 C54.3484768,0.660210998 54.7627099,0.792841251 55.1505085,0.963789474 C55.538307,1.1347377 55.8908459,1.34105142 56.2081356,1.58273684 C56.5254253,1.82442226 56.7898295,2.09852478 57.0013559,2.40505263 L55.9437288,3.18315789 C55.8144626,2.98273584 55.641131,2.78231679 55.4237288,2.58189474 C55.2063266,2.38147268 54.9507359,2.20463235 54.6569492,2.05136842 C54.3631624,1.8981045 54.0429396,1.77431626 53.6962712,1.68 C53.3496028,1.58568374 52.9764992,1.53852632 52.5769492,1.53852632 C51.7660976,1.53852632 51.0404552,1.68589326 50.4,1.98063158 C49.7595448,2.27536989 49.2160474,2.67326065 48.7694915,3.17431579 C48.3229356,3.67537093 47.9821481,4.2559967 47.7471186,4.91621053 C47.5120892,5.57642435 47.3945763,6.27199635 47.3945763,7.00294737 C47.3945763,7.73389839 47.515027,8.42947038 47.7559322,9.08968421 C47.9968374,9.74989804 48.3405627,10.3305238 48.7871186,10.8315789 C49.2336745,11.3326341 49.7771719,11.7305248 50.4176271,12.0252632 C51.0580823,12.3200015 51.7778491,12.4673684 52.5769492,12.4673684 C53.2937889,12.4673684 53.975364,12.3200015 54.6216949,12.0252632 C55.2680258,11.7305248 55.8085854,11.2589506 56.2433898,10.6105263 L57.2305085,11.2471579 Z M71.4732202,11.2471579 C71.2616938,11.5654753 71.0061031,11.8661038 70.7064406,12.1490526 C70.4067781,12.4320014 70.0601149,12.6795779 69.6664406,12.8917895 C69.2727663,13.1040011 68.8379684,13.2719994 68.3620338,13.3957895 C67.8860992,13.5195796 67.3661044,13.5814737 66.8020338,13.5814737 C65.8619161,13.5814737 64.9923203,13.4164227 64.1932202,13.0863158 C63.3941202,12.7562089 62.7066694,12.2993713 62.1308474,11.7157895 C61.5550253,11.1322076 61.1055382,10.439583 60.7823728,9.63789474 C60.4592073,8.83620652 60.297627,7.95789951 60.297627,7.00294737 C60.297627,6.04799523 60.4621451,5.16968822 60.7911863,4.368 C61.1202275,3.56631178 61.5755902,2.87368713 62.157288,2.29010526 C62.7389859,1.7065234 63.4264366,1.24968586 64.2196609,0.919578947 C65.0128852,0.589472034 65.8736676,0.424421053 66.8020338,0.424421053 C67.2603412,0.424421053 67.7098282,0.471578476 68.1505084,0.565894737 C68.5911885,0.660210998 69.0054217,0.792841251 69.3932202,0.963789474 C69.7810188,1.1347377 70.1335576,1.34105142 70.4508474,1.58273684 C70.7681371,1.82442226 71.0325412,2.09852478 71.2440677,2.40505263 L70.1864406,3.18315789 C70.0571744,2.98273584 69.8838428,2.78231679 69.6664406,2.58189474 C69.4490384,2.38147268 69.1934477,2.20463235 68.8996609,2.05136842 C68.6058741,1.8981045 68.2856513,1.77431626 67.9389829,1.68 C67.5923145,1.58568374 67.2192109,1.53852632 66.8196609,1.53852632 C66.0088094,1.53852632 65.2831669,1.68589326 64.6427118,1.98063158 C64.0022566,2.27536989 63.4587592,2.67326065 63.0122033,3.17431579 C62.5656474,3.67537093 62.2248598,4.2559967 61.9898304,4.91621053 C61.754801,5.57642435 61.637288,6.27199635 61.637288,7.00294737 C61.637288,7.73389839 61.7577388,8.42947038 61.998644,9.08968421 C62.2395491,9.74989804 62.5832745,10.3305238 63.0298304,10.8315789 C63.4763863,11.3326341 64.0198837,11.7305248 64.6603389,12.0252632 C65.3007941,12.3200015 66.0205609,12.4673684 66.8196609,12.4673684 C67.5365007,12.4673684 68.2180758,12.3200015 68.8644067,12.0252632 C69.5107376,11.7305248 70.0512972,11.2589506 70.4861016,10.6105263 L71.4732202,11.2471579 Z M80.0223727,13.5814737 C79.082255,13.5814737 78.3125452,13.41937 77.7132201,13.0951579 C77.1138951,12.7709457 76.6379677,12.3612656 76.2854235,11.8661053 C75.9328794,11.3709449 75.68904,10.8315819 75.5538981,10.248 C75.4187562,9.66441813 75.3511862,9.11326575 75.3511862,8.59452632 L75.3511862,0.742736842 L76.6203388,0.742736842 L76.6203388,8.45305263 C76.6203388,8.96000253 76.6790952,9.45220814 76.79661,9.92968421 C76.9141247,10.4071603 77.1050832,10.8315771 77.3694913,11.2029474 C77.6338994,11.5743176 77.9835004,11.8749462 78.4183049,12.1048421 C78.8531093,12.334738 79.3877932,12.4496842 80.0223727,12.4496842 C80.6569521,12.4496842 81.191636,12.334738 81.6264405,12.1048421 C82.0612449,11.8749462 82.4108459,11.5743176 82.675254,11.2029474 C82.9396621,10.8315771 83.1306207,10.4071603 83.2481354,9.92968421 C83.3656501,9.45220814 83.4244066,8.96000253 83.4244066,8.45305263 L83.4244066,0.742736842 L84.6935591,0.742736842 L84.6935591,8.59452632 C84.6935591,9.11326575 84.6259892,9.66441813 84.4908472,10.248 C84.3557053,10.8315819 84.111866,11.3709449 83.7593218,11.8661053 C83.4067777,12.3612656 82.9279124,12.7709457 82.3227117,13.0951579 C81.7175109,13.41937 80.9507389,13.5814737 80.0223727,13.5814737 Z M89.6996607,0.742736842 L93.2250844,0.742736842 C93.8596639,0.742736842 94.4354773,0.810525638 94.9525421,0.946105263 C95.4696068,1.08168489 95.9132182,1.28799861 96.2833895,1.56505263 C96.6535609,1.84210665 96.9385298,2.18989264 97.1383048,2.60842105 C97.3380798,3.02694946 97.4379658,3.51915507 97.4379658,4.08505263 C97.4379658,4.6509502 97.335142,5.1431558 97.1294912,5.56168421 C96.9238405,5.98021262 96.6359337,6.32799861 96.2657624,6.60505263 C95.8955911,6.88210665 95.4490418,7.09136771 94.9261014,7.23284211 C94.4031609,7.3743165 93.8244096,7.44505263 93.1898302,7.44505263 L90.9688132,7.44505263 L90.9688132,13.2631579 L89.6996607,13.2631579 L89.6996607,0.742736842 Z M90.9688132,6.36631579 L93.1193217,6.36631579 C94.1181968,6.36631579 94.8761553,6.17179142 95.39322,5.78273684 C95.9102848,5.39368227 96.1688132,4.82779319 96.1688132,4.08505263 C96.1688132,3.30694348 95.9014713,2.73810706 95.3667793,2.37852632 C94.8320874,2.01894557 94.0829424,1.83915789 93.1193217,1.83915789 L90.9688132,1.83915789 L90.9688132,6.36631579 Z M102.955254,13.2631579 L101.686101,13.2631579 L101.686101,0.742736842 L102.955254,0.742736842 L102.955254,13.2631579 Z M109.301016,12.1313684 L115.981694,12.1313684 L115.981694,13.2631579 L108.031864,13.2631579 L108.031864,0.742736842 L115.770169,0.742736842 L115.770169,1.87452632 L109.301016,1.87452632 L109.301016,6.18947368 L115.347118,6.18947368 L115.347118,7.30357895 L109.301016,7.30357895 L109.301016,12.1313684 Z M120.22983,0.742736842 L124.372203,0.742736842 C125.1478,0.742736842 125.926323,0.872419756 126.707796,1.13178947 C127.489269,1.39115919 128.194347,1.78315527 128.82305,2.30778947 C129.451754,2.83242368 129.959997,3.48673292 130.347796,4.27073684 C130.735595,5.05474076 130.929491,5.9654685 130.929491,7.00294737 C130.929491,8.05221577 130.735595,8.96589085 130.347796,9.744 C129.959997,10.5221092 129.451754,11.1734711 128.82305,11.6981053 C128.194347,12.2227395 127.489269,12.6147355 126.707796,12.8741053 C125.926323,13.133475 125.1478,13.2631579 124.372203,13.2631579 L120.22983,13.2631579 L120.22983,0.742736842 Z M121.498982,12.1313684 L124.01966,12.1313684 C124.959778,12.1313684 125.779431,11.9840015 126.478643,11.6892632 C127.177856,11.3945248 127.756607,11.0084234 128.214915,10.5309474 C128.673222,10.0534713 129.016947,9.50821359 129.246101,8.89515789 C129.475255,8.2821022 129.58983,7.65137166 129.58983,7.00294737 C129.58983,6.35452307 129.475255,5.72379254 129.246101,5.11073684 C129.016947,4.49768115 128.673222,3.95242344 128.214915,3.47494737 C127.756607,2.9974713 127.177856,2.61136989 126.478643,2.31663158 C125.779431,2.02189326 124.959778,1.87452632 124.01966,1.87452632 L121.498982,1.87452632 L121.498982,12.1313684 Z" id="CCUPIED-Copy"></path>
                </g>
            </g>
        </g>
    </g>
</svg>